<?xml version="1.0" encoding="utf-8"?>
<!-- Generator: Adobe Illustrator 18.0.0, SVG Export Plug-In . SVG Version: 6.00 Build 0)  -->
<!DOCTYPE svg PUBLIC "-//W3C//DTD SVG 1.1//EN" "http://www.w3.org/Graphics/SVG/1.1/DTD/svg11.dtd">
<svg version="1.1" id="Layer_1" xmlns="http://www.w3.org/2000/svg" xmlns:xlink="http://www.w3.org/1999/xlink" x="0px" y="0px"
	 viewBox="0 0 500 90.7" enable-background="new 0 0 500 90.7" xml:space="preserve">
<g>
	<path fill="#FFFFFF" d="M8.7,21.5H21l-5.6,52.9H3.1L8.7,21.5z"/>
	<path fill="#FFFFFF" d="M38,32.1H26.1l1.1-10.6h36.2l-1.1,10.6h-12l-4.5,42.3H33.6L38,32.1z"/>
	<path fill="#FFFFFF" d="M69.6,21.5H82l-5.6,52.9H64L69.6,21.5z"/>
	<path fill="#FFFFFF" d="M120.4,56l3.6-34.5h12.2l-5.6,52.9h-12.8l-15.5-34l-3.6,34H86.6l5.6-52.9h12.8L120.4,56z"/>
	<path fill="#FFFFFF" d="M157.5,31.3l-1.3,12h20l-1,9.6h-20L154,64.6h20l-1.1,9.8h-32.3l5.6-52.9h32.3l-1.1,9.8H157.5z"/>
	<path fill="#FFFFFF" d="M188.3,21.5h22.2c10.9,0,17.3,7.9,17.3,17.4c0,8.2-4.8,15.4-12.4,18.8l8.8,16.7H210l-7.9-14.7h-5.7
		l-1.5,14.7h-12.2L188.3,21.5z M215.4,39.7c0-4.5-2.9-8.2-7.6-8.2h-8.4l-2,18.3h8.4C211.5,49.8,215.4,45,215.4,39.7z"/>
	<path fill="#FFFFFF" d="M263.3,74.4l-1.4-6.4h-18.8l-2.7,6.4h-13.1l24.5-52.9h11.3l13.5,52.9H263.3z M255.9,36.6l-8.8,21.8h12.8
		L255.9,36.6z"/>
	<path fill="#FFFFFF" d="M287.6,21.5h22.1c10.9,0,17.3,7.9,17.3,17.4c0,11-8.8,20.9-21.4,20.9h-9.9l-1.5,14.7H282L287.6,21.5z
		 M314.7,39.7c0-4.5-2.9-8.2-7.6-8.2h-8.4l-2,18.3h8.4C310.8,49.8,314.7,45,314.7,39.7z"/>
	<path fill="#FFFFFF" d="M335.5,21.5h22.1c10.9,0,17.3,7.9,17.3,17.4c0,11-8.8,20.9-21.4,20.9h-9.9l-1.5,14.7H330L335.5,21.5z
		 M362.7,39.7c0-4.5-2.9-8.2-7.6-8.2h-8.4l-2,18.3h8.4C358.7,49.8,362.7,45,362.7,39.7z"/>
</g>
<g>
	<path fill="#07A480" d="M462,26c-1.7-2.1-3.4-4.1-5.1-6.2c-1-1.2-1.7-2.5-1.6-4.1c0-0.9-0.3-1.3-1.1-1.7c-13-7.2-29.6-5.6-41,4.1
		c-8.1,6.9-12.4,15.6-13.1,26.2c-0.1,1.5,0,3,0,4.7c2.2-0.2,4.1-0.4,6-0.6c-0.3-5.6,0.6-10.7,3.1-15.5c0.2,0.4,0.2,0.8,0.2,1.2
		c0.1,1.6,0.2,3.2,0.2,4.8c0,0.7,0.3,1.1,0.9,1.5c2.2,1.5,4.7,2.6,5.9,5.3c0,0.1,0.1,0.1,0.2,0.2c1.8-0.6,3.7-1.2,5.6-1.8
		c0.3-0.1,0.6-0.5,0.6-0.7c-0.3-1.4,0.5-1.8,1.6-1.8c0.3,0,0.6,0,0.8-0.1c1.6-0.5,3.5-0.7,4.9-1.7c2.6-1.9,4.8-4.2,7.3-6.3
		c-0.6-0.8-1.1-1.6-1.7-2.3c-0.4-0.5-0.4-0.9-0.1-1.4c0.6-1.2,1.2-2.5,1.9-3.8c-2.6-0.9-3.1-3.1-3.7-5.2c-0.1-0.4-0.3-0.8-0.4-1.2
		c0-0.3,0-0.8,0.2-1c3.7-3.8,1.8-3.4,7.2-2.9c1.5,0.1,3,0.6,4.5,0.9c0,0.1,0,0.2,0.1,0.3c-0.3,0.2-0.6,0.5-0.9,0.7
		c-0.9,0.9-1.1,2.1-0.2,3c0.8,0.8,1,1.7,1.2,2.7c0.1,0.8,0.2,1.6,0.4,2.4c0.1,0.3,0.2,0.6,0.4,0.8c1.1,0.8,2.2,1.6,3.4,2.2
		c0.7,0.4,1.3,0.4,2-0.4c1.7-1.9,3.8-3.5,6.6-3.3C459.6,25.2,460.7,25.7,462,26z M406.2,66.2c0.2,0.4,0.4,0.7,0.6,0.9
		c9,12.2,21.1,17.6,36.1,15.2c13.3-2.1,22.5-10,28-22.3c2-4.4,1.7-8.7,0.5-13.3c-0.2,0.4-0.3,0.7-0.4,1c-1.7,4.2-6.7,6.2-10.8,4.3
		c-0.3-0.1-0.8-0.1-1.1,0c-2.1,0.9-4.3,1.8-6.4,2.8c-1.2,0.5-1.4,1.9-0.4,2.8c0.8,0.7,1.7,1.4,2.5,2.1c-0.8,0.8-1.6,1.5-2.2,2.3
		c-0.2,0.2-0.4,0.7-0.3,1c0.8,2.7,0.7,5.8,2.7,8.1c-5.8,4.1-12.2,6.1-19.3,5.6c0.3-0.4,0.5-0.7,0.9-0.9c1.3-0.8,2.1-1.8,1.5-3.4
		c-0.2-0.6,0.1-0.9,0.6-1.1c1-0.4,2-0.9,3-1.5c0.4-0.3,0.9-0.8,1.1-1.2c0.5-1.3,0.6-2.9,1.7-3.9c0.8-0.8,1-1.7,0.4-2.7
		c-0.3-0.4-0.6-0.8-1-1.1c-0.9-0.5-1.9-1-2.9-1.3c-0.4-0.2-0.9-0.2-1.4-0.1c-2.1,0.6-4.2,1.3-6.4,1.9c-2.3,0.6-4.5,1.2-7,1.9
		c1,0.9,1.9,1.7,2.8,2.6c-0.3,0.4-0.5,0.7-0.7,0.9c-0.9,0.8-1,1.7-0.8,2.8c0.5,2,0.8,4,1.2,6c0,0-0.2,0-0.2,0
		c-0.2-0.1-0.5-0.1-0.7-0.2c-5.5-1.8-10.1-4.8-13.9-9.1c-0.3-0.3-0.8-0.7-1.1-0.7C410.5,65.8,408.4,66,406.2,66.2z M396.6,43.4
		c-2.2,2.2-4.5,4.7-5.8,7.8c-1.4,3.3-0.5,6.1,2.7,7.8c1.2,0.6,2.6,1.1,3.9,1.4c5.2,1.1,10.4,0.8,15.7,0.2c7.4-0.9,14.5-2.6,21.6-4.7
		c7.3-2.2,14.5-5,21.5-8.2c0.3-0.2,0.8-0.6,0.8-0.9c0-3.4,0.1-6.9-3.4-9c-0.1-0.1-0.3-0.2-0.4-0.4c-0.4-0.5-0.8-0.5-1.3-0.2
		c-5.9,2.7-11.7,5.5-17.7,7.9c-9.3,3.8-18.8,7.1-28.8,8.6c-2.9,0.4-5.8,0.7-8.7-0.1c-2.4-0.7-3.4-2.4-2.6-4.8
		C394.9,46.9,395.8,45.1,396.6,43.4z"/>
	<path fill="#07A480" d="M496.9,24.1c-0.9,2.1-2.5,3.5-4.3,4.7c-1.7,1.1-3.4,2-5.1,3c-0.6,0.3-1,0.7-1.1,1.5
		c-1.1,6.4-2.3,12.8-3.5,19.3c-0.3,1.6-0.5,1.8-2.1,2.1c-2.7,0.5-2.6,0.5-3.1-2.1c-0.8-4.9-1.6-9.7-2.3-14.6c0-0.3-0.2-0.6-0.3-1
		c-2.2,0.8-4.4,1.5-6.6,2.3c-0.3,0.1-0.5,0.6-0.7,1c-0.8,1.9-1.5,3.8-2.2,5.7c-0.3,0.9-2.1,1.8-2.9,1.4c-0.3-0.1-0.5-0.6-0.5-1
		c-0.2-2.3-0.3-4.6-0.5-7c0-0.5-0.3-1.1-0.7-1.4c-1.5-1.6-3.1-3.2-4.7-4.8c-0.8-0.9-0.8-1,0.1-1.8c0.9-0.8,1.8-0.9,2.9-0.4
		c1.7,0.8,3.5,1.4,5.3,2c0.5,0.2,1.1,0.1,1.5-0.1c1.9-1,3.7-2.1,5.7-3.2c-1.1-1.3-2.1-2.5-3.1-3.8c-2.5-3.1-5.1-6.2-7.6-9.3
		c-0.9-1.1-0.9-1.3,0.2-2.2c2.3-1.8,2.3-1.8,4.8-0.3c5.3,3.2,10.6,6.4,15.9,9.7c0.5,0.3,1,0.3,1.5,0.1c2.6-0.8,5.2-1.6,7.9-2.3
		c0.8-0.2,1.8-0.1,2.7-0.1c1.1,0.1,2.1,0.6,2.6,1.6C496.9,23.4,496.9,23.8,496.9,24.1z M491.5,27.5c1.3-0.6,1.7-1.7,1.1-2.9
		c-0.6-1.2-1.6-1.6-2.9-1C491,24.6,491.6,25.9,491.5,27.5z"/>
	<path fill="#07A480" d="M462,26c-1.3-0.3-2.4-0.7-3.6-0.8c-2.8-0.2-4.8,1.3-6.6,3.3c-0.7,0.8-1.3,0.8-2,0.4
		c-1.2-0.7-2.3-1.5-3.4-2.2c-0.2-0.2-0.4-0.5-0.4-0.8c-0.2-0.8-0.3-1.6-0.4-2.4c-0.2-1-0.4-1.9-1.2-2.7c-0.9-0.9-0.8-2.1,0.2-3
		c0.3-0.3,0.6-0.5,0.9-0.7c0-0.1,0-0.2-0.1-0.3c-1.5-0.3-3-0.8-4.5-0.9c-5.4-0.5-3.5-0.9-7.2,2.9c-0.2,0.2-0.3,0.7-0.2,1
		c0,0.4,0.3,0.8,0.4,1.2c0.6,2.2,1.1,4.4,3.7,5.2c-0.7,1.4-1.3,2.6-1.9,3.8c-0.3,0.5-0.3,0.9,0.1,1.4c0.6,0.7,1.1,1.5,1.7,2.3
		c-2.4,2.2-4.7,4.5-7.3,6.3c-1.3,1-3.2,1.2-4.9,1.7c-0.3,0.1-0.5,0.1-0.8,0.1c-1.2,0-1.9,0.4-1.6,1.8c0,0.2-0.3,0.6-0.6,0.7
		c-1.9,0.6-3.8,1.2-5.6,1.8c-0.1-0.1-0.2-0.1-0.2-0.2c-1.2-2.6-3.7-3.8-5.9-5.3c-0.6-0.4-0.9-0.8-0.9-1.5c0-1.6-0.1-3.2-0.2-4.8
		c0-0.4-0.1-0.8-0.2-1.2c-2.5,4.8-3.4,9.9-3.1,15.5c-1.9,0.2-3.8,0.4-6,0.6c0-1.7-0.1-3.2,0-4.7c0.7-10.6,5-19.3,13.1-26.2
		c11.4-9.7,28-11.4,41-4.1c0.7,0.4,1.1,0.8,1.1,1.7c-0.1,1.6,0.6,2.9,1.6,4.1C458.6,21.8,460.3,23.9,462,26z"/>
	<path fill="#07A480" d="M406.2,66.2c2.2-0.2,4.3-0.4,6.4-0.5c0.4,0,0.8,0.4,1.1,0.7c3.8,4.3,8.4,7.3,13.9,9.1
		c0.2,0.1,0.5,0.1,0.7,0.2c0.1,0,0.2,0,0.2,0c-0.4-2-0.7-4-1.2-6c-0.3-1.1-0.1-2,0.8-2.8c0.3-0.2,0.4-0.5,0.7-0.9
		c-0.9-0.9-1.8-1.7-2.8-2.6c2.4-0.6,4.7-1.2,7-1.9c2.1-0.6,4.2-1.3,6.4-1.9c0.4-0.1,1-0.1,1.4,0.1c1,0.4,2,0.8,2.9,1.3
		c0.4,0.2,0.8,0.7,1,1.1c0.6,1,0.5,1.9-0.4,2.7c-1.1,1.1-1.2,2.6-1.7,3.9c-0.2,0.5-0.6,1-1.1,1.2c-0.9,0.6-2,1-3,1.5
		c-0.5,0.2-0.8,0.6-0.6,1.1c0.6,1.6-0.2,2.6-1.5,3.4c-0.3,0.2-0.6,0.5-0.9,0.9c7.1,0.4,13.4-1.6,19.3-5.6c-2.1-2.4-1.9-5.4-2.7-8.1
		c-0.1-0.3,0.1-0.7,0.3-1c0.7-0.8,1.4-1.5,2.2-2.3c-0.9-0.7-1.7-1.4-2.5-2.1c-1-0.9-0.8-2.3,0.4-2.8c2.1-0.9,4.3-1.9,6.4-2.8
		c0.3-0.1,0.8-0.1,1.1,0c4.1,1.9,9.1,0,10.8-4.3c0.1-0.3,0.3-0.6,0.4-1c1.3,4.5,1.5,8.9-0.5,13.3c-5.5,12.3-14.7,20.2-28,22.3
		c-15,2.4-27-3.1-36.1-15.2C406.5,66.8,406.4,66.5,406.2,66.2z"/>
	<path fill="#07A480" d="M396.6,43.4c-0.8,1.7-1.8,3.4-2.4,5.3c-0.8,2.4,0.2,4.1,2.6,4.8c2.9,0.8,5.8,0.6,8.7,0.1
		c10-1.5,19.5-4.8,28.8-8.6c6-2.4,11.8-5.3,17.7-7.9c0.6-0.3,1-0.3,1.3,0.2c0.1,0.1,0.2,0.3,0.4,0.4c3.4,2.1,3.4,5.6,3.4,9
		c0,0.3-0.5,0.7-0.8,0.9c-7,3.2-14.1,5.9-21.5,8.2c-7.1,2.2-14.3,3.9-21.6,4.7c-5.2,0.6-10.5,0.9-15.7-0.2c-1.3-0.3-2.7-0.7-3.9-1.4
		c-3.2-1.6-4.2-4.4-2.7-7.8C392.2,48.1,394.4,45.7,396.6,43.4z"/>
	<path fill="#07A480" d="M491.5,27.5c0.1-1.6-0.5-2.9-1.8-3.9c1.3-0.6,2.3-0.2,2.9,1C493.2,25.9,492.8,26.9,491.5,27.5z"/>
</g>
</svg>
